<?xml version="1.0" encoding="UTF-8" standalone="no"?><!DOCTYPE svg PUBLIC "-//W3C//DTD SVG 1.1//EN" "http://www.w3.org/Graphics/SVG/1.1/DTD/svg11.dtd"><svg width="100%" height="100%" viewBox="0 0 1950 226" version="1.1" xmlns="http://www.w3.org/2000/svg" xmlns:xlink="http://www.w3.org/1999/xlink" xml:space="preserve" xmlns:serif="http://www.serif.com/" style="fill-rule:evenodd;clip-rule:evenodd;stroke-linejoin:round;stroke-miterlimit:2;"><path d="M33.087,33.025c-22.062,22.087 -33.087,51.029 -33.087,79.975c-0,28.941 11.025,57.883 33.087,79.971c34.288,34.3 85.084,41.833 126.742,22.833l-14.787,-27.079l67.841,24.237l-179.796,-179.937Z" style="fill:#f78e1e;fill-rule:nonzero;"/><path d="M192.891,192.971c44.125,-44.163 44.125,-115.771 0,-159.933c-21.958,-21.984 -50.691,-32.971 -79.466,-33.038c-16.146,-0.025 -32.305,3.375 -47.275,10.204l14.787,27.067l-67.825,-24.225l179.779,179.925Z" style="fill:#084b82;fill-rule:nonzero;"/><path d="M60.568,87.324l-39.48,-0l-10.562,49.754l40.117,-0l2.3,-10.834l-27.175,0l2.095,-9.779l24.663,0l2.104,-10.066l-24.675,-0l1.821,-8.596l26.621,-0l2.171,-10.479Z" style="fill:#fff;fill-rule:nonzero;"/><path d="M108.587,108.136c0,-14.195 -8.05,-22.383 -21.825,-22.383c-12.208,0 -20.9,6.35 -24.004,17.646l13.275,-0c1.767,-4.654 5.154,-7.129 9.808,-7.129c5.446,-0 8.904,3.529 9.534,9.816l-16.025,0l-2.192,10.163l17.092,-0c-1.767,6.075 -5.721,11.442 -12.496,11.442c-5.792,-0 -8.338,-2.963 -8.479,-8.542l-12.709,-0l0,1.129c0,11.013 8.125,18.079 20.692,18.079c17.158,0 27.329,-13.487 27.329,-30.221" style="fill:#fff;fill-rule:nonzero;"/><path d="M165.022,86.88l-13.204,0l-3.884,18.288l-17.516,-0l3.887,-18.288l-13.204,0l-10.663,50.271l13.205,-0l4.454,-20.758l17.433,-0l-4.379,20.758l13.212,-0l10.659,-50.271Z" style="fill:#fff;fill-rule:nonzero;"/><path d="M213.176,118.583l-13.133,-0c-1.48,6.004 -5.15,9.25 -10.455,9.25c-6.066,-0 -9.595,-4.371 -9.595,-12c-0,-8.192 3.954,-19.421 13.691,-19.421c5.8,-0 8.338,2.962 8.479,8.542l12.709,-0l-0,-1.125c-0,-11.017 -8.125,-18.075 -20.692,-18.075c-17.158,-0 -27.321,13.479 -27.321,30.212c0,14.2 8.042,22.392 21.817,22.392c12.917,-0 21.954,-7.129 24.5,-19.775" style="fill:#fff;fill-rule:nonzero;"/><path d="M610.219,75.299l-62.063,0l-3.387,15.884l21.821,-0l-12.192,57.033l19.15,0l12.2,-57.033l21.087,-0l3.384,-15.884Z" style="fill:#054d84;fill-rule:nonzero;"/><path d="M677.374,75.299l-57.859,0l-15.483,72.917l58.8,0l3.367,-15.871l-39.829,0l3.075,-14.337l36.141,-0l3.084,-14.75l-36.163,-0l2.671,-12.6l39.017,-0l3.179,-15.359Z" style="fill:#054d84;fill-rule:nonzero;"/><path d="M392.614,75.202l-58.012,-0l-15.525,73.112l58.954,0l3.379,-15.916l-39.937,-0l3.083,-14.371l36.242,-0l3.087,-14.792l-36.258,0l2.679,-12.633l39.121,-0l3.187,-15.4Z" style="fill:#054d84;fill-rule:nonzero;"/><path d="M707.017,90.761l10.667,-0c5.933,-0 11.362,0.812 11.362,7.892c0,7.887 -5.629,10.325 -13.012,10.325l-12.788,-0l3.771,-18.217Zm-15.662,-15.463l-15.463,72.917l19.05,0l5.121,-24.375l14.337,0c7.18,0 15.463,-0.629 21.605,-4.508c7.175,-4.488 11.579,-13.192 11.579,-22.517c-0,-15.887 -10.438,-21.517 -25.192,-21.517l-31.037,0Z" style="fill:#054d84;fill-rule:nonzero;"/><path d="M951.491,122.616c-0,7.892 -5.629,10.342 -13.013,10.342l-15.462,0l3.879,-18.25l13.213,0c5.954,0 11.383,0.85 11.383,7.908m21.5,-47.316l-56.638,-0l-15.462,72.916l36.362,0c7.059,0 15.359,-0.612 21.6,-4.508c7.075,-4.492 11.584,-13.2 11.584,-22.537c-0,-15.867 -10.442,-21.496 -25.188,-21.496l-15.154,-0l1.838,-8.913l37.787,0l3.271,-15.462Z" style="fill:#054d84;fill-rule:nonzero;"/><path d="M1018.52,130.103l34.209,-54.804l-21.717,-0l-19.971,38.508l-8.808,-38.508l-20.479,-0l14.521,45.583c0.729,2.146 1.341,4.1 1.341,5.917c0,4.529 -3.791,6.771 -7.783,6.771c-3.167,-0 -6.45,-0.817 -8.408,-1.534l-3.367,15.463c1.733,0.717 6.346,1.942 10.446,1.942c13.116,-0 21.208,-5.309 30.016,-19.338" style="fill:#054d84;fill-rule:nonzero;"/><path d="M1077.33,90.761l10.667,-0c5.933,-0 11.362,0.812 11.362,7.892c0,7.887 -5.629,10.325 -13,10.325l-12.8,-0l3.771,-18.217Zm-15.663,-15.463l-15.462,72.917l19.05,0l5.117,-24.375l14.341,0c7.179,0 15.463,-0.629 21.617,-4.508c7.162,-4.488 11.567,-13.192 11.567,-22.517c-0,-15.887 -10.446,-21.517 -25.192,-21.517l-31.038,0Z" style="fill:#054d84;fill-rule:nonzero;"/><path d="M1115,148.217l19.155,-0l12.095,-57.034l34.717,0l3.379,-15.883l-53.883,0l-15.463,72.917Z" style="fill:#054d84;fill-rule:nonzero;"/><path d="M476.127,75.273l-25.208,0l-30.234,28.404l6.467,-28.404l-19.071,0l-15.466,72.971l19.05,-0l4.716,-22.229l9.742,-8.304l15.062,30.533l21.621,-0l-21.725,-42.942l35.046,-30.029Z" style="fill:#084b82;fill-rule:nonzero;"/><path d="M903.46,74.981l-19.22,-0l-5.667,26.645l-25.508,0l5.645,-26.645l-19.229,-0l-15.541,73.237l19.25,0l6.47,-30.242l25.421,0l-6.387,30.242l19.246,0l15.52,-73.237Z" style="fill:#084b82;fill-rule:nonzero;"/><path d="M826.386,74.981l-21.913,-0l-33.733,48.77l10.996,-48.77l-18.609,-0l-15.545,73.237l22.545,0l33.842,-48.746l-11.746,48.746l18.634,0l15.529,-73.237Z" style="fill:#084b82;fill-rule:nonzero;"/><path d="M510.841,94.659c0.212,5.734 1.037,11.359 1.754,17.005l1.221,9.525l-16.796,-0l5.117,-9.309c3.079,-5.546 6.35,-11.596 8.704,-17.221m13.533,-19.387l-19.158,-0l-42.942,72.971l20.083,-0l7.48,-13.313l25.512,0l1.858,13.313l19.067,-0l-11.9,-72.971Z" style="fill:#084b82;fill-rule:nonzero;"/><path d="M1949.13,74.551l-62.875,-0l-3.442,16.079l22.113,-0l-12.35,57.796l19.4,-0l12.354,-57.796l21.371,-0l3.429,-16.079Zm-91.284,-0l-15.679,73.875l19.196,-0l15.663,-73.875l-19.18,-0Zm-36.425,47.941c0,7.988 -5.708,10.479 -13.175,10.479l-10.279,0l3.946,-18.466l7.988,-0c6.02,-0 11.52,0.821 11.52,7.987m18.988,-1.458c-0,-16.079 -10.583,-21.788 -25.529,-21.788l-9.759,0l5.196,-24.695l-19.296,-0l-15.679,73.875l31.446,-0c7.167,-0 15.558,-0.625 21.892,-4.563c7.166,-4.571 11.729,-13.383 11.729,-22.829m-89.525,1.458c-0,7.988 -5.708,10.479 -13.175,10.479l-15.679,0l3.95,-18.466l13.383,-0c6.021,-0 11.521,0.821 11.521,7.987m21.787,-47.941l-57.375,-0l-15.666,73.875l36.829,-0c7.167,-0 15.571,-0.625 21.892,-4.563c7.166,-4.571 11.729,-13.383 11.729,-22.829c-0,-16.079 -10.584,-21.788 -25.529,-21.788l-15.35,0l1.862,-9.033l38.288,0l3.32,-15.662Zm-77.954,46.587l-19.3,0c-2.175,8.821 -7.571,13.592 -15.362,13.592c-8.913,-0 -14.1,-6.425 -14.1,-17.634c-0,-12.037 5.812,-28.537 20.121,-28.537c8.52,-0 12.25,4.354 12.458,12.55l18.675,-0l-0,-1.654c-0,-16.188 -11.938,-26.559 -30.404,-26.559c-25.217,0 -40.15,19.809 -40.15,44.396c-0,20.863 11.821,32.904 32.058,32.904c18.988,0 32.267,-10.475 36.004,-29.058" style="fill:#084b82;fill-rule:nonzero;"/><path d="M1584.75,88.455c10.163,-0 14.1,7.362 14.1,16.6c0,11.729 -6.321,29.675 -20.537,29.675c-9.342,-0 -14.738,-6.229 -14.738,-16.813c0,-12.758 6.125,-29.462 21.175,-29.462m33.725,15.975c0,-20.225 -13.291,-31.534 -32.8,-31.534c-25.621,0 -41.4,19.509 -41.4,44.305c0,21.058 12.146,33.1 32.8,33.1c26.246,-0 41.388,-20.863 41.4,-45.871m-139.046,43.996l19.405,-0l12.25,-57.796l35.17,-0l3.43,-16.079l-54.588,-0l-15.667,73.875Zm-40.554,-58.213l10.792,0c6.021,0 11.521,0.833 11.521,7.988c-0,8.004 -5.709,10.491 -13.175,10.491l-12.967,0l3.829,-18.479Zm-15.871,-15.662l-15.662,73.875l19.283,-0l5.2,-24.696l14.517,-0c7.275,-0 15.679,-0.625 21.908,-4.559c7.259,-4.575 11.713,-13.383 11.713,-22.833c-0,-16.079 -10.579,-21.787 -25.525,-21.787l-31.434,-0Zm-13.604,-0l-58.616,-0l-15.675,73.875l59.554,-0l3.425,-16.08l-40.359,0l3.117,-14.533l36.629,0l3.104,-14.933l-36.62,-0l2.683,-12.771l39.537,-0l3.221,-15.558Zm-73.666,-0l-19.405,-0l-5.708,26.87l-25.737,0l5.708,-26.87l-19.404,-0l-15.663,73.875l19.404,-0l6.542,-30.509l25.621,0l-6.438,30.509l19.417,-0l15.663,-73.875Zm-82.934,31.237c0,-20.867 -11.829,-32.892 -32.071,-32.892c-17.941,0 -30.712,9.33 -35.275,25.934l19.509,-0c2.596,-6.842 7.571,-10.479 14.412,-10.479c8,-0 13.084,5.187 14.009,14.425l-23.546,-0l-3.221,14.933l25.112,-0c-2.591,8.929 -8.404,16.812 -18.362,16.812c-8.508,0 -12.246,-4.354 -12.458,-12.55l-18.671,0l-0,1.655c-0,16.187 11.937,26.57 30.4,26.57c25.216,0 40.162,-19.82 40.162,-44.408" style="fill:#084b82;fill-rule:nonzero;"/></svg>