<?xml version="1.0" encoding="UTF-8" standalone="no"?><!DOCTYPE svg PUBLIC "-//W3C//DTD SVG 1.1//EN" "http://www.w3.org/Graphics/SVG/1.1/DTD/svg11.dtd"><svg width="100%" height="100%" viewBox="0 0 512 512" version="1.1" xmlns="http://www.w3.org/2000/svg" xmlns:xlink="http://www.w3.org/1999/xlink" xml:space="preserve" xmlns:serif="http://www.serif.com/" style="fill-rule:evenodd;clip-rule:evenodd;stroke-linejoin:round;stroke-miterlimit:2;"><g><path d="M76.143,75.988c-49.66,49.716 -74.476,114.861 -74.476,180.014c-0,65.145 24.816,130.289 74.476,180.006c77.177,77.205 191.513,94.162 285.281,51.395l-33.285,-60.952l152.704,54.555l-404.7,-405.018Z" style="fill:#f78e1e;fill-rule:nonzero;"/><path d="M435.843,436.008c99.32,-99.404 99.32,-260.586 -0,-359.991c-49.426,-49.482 -114.101,-74.214 -178.87,-74.364c-36.343,-0.056 -72.713,7.597 -106.411,22.969l33.285,60.924l-152.666,-54.528l404.662,404.99Z" style="fill:#084b82;fill-rule:nonzero;"/><path d="M137.997,198.208l-88.863,0l-23.775,111.991l90.298,0l5.177,-24.384l-61.167,-0l4.717,-22.012l55.513,-0l4.736,-22.659l-55.541,-0l4.099,-19.348l59.92,-0l4.886,-23.588Z" style="fill:#fff;fill-rule:nonzero;"/><path d="M246.084,245.056c-0,-31.954 -18.12,-50.383 -49.126,-50.383c-27.479,0 -47.043,14.293 -54.03,39.719l29.88,0c3.977,-10.476 11.602,-16.047 22.078,-16.047c12.258,0 20.042,7.944 21.458,22.096l-36.07,0l-4.933,22.875l38.471,-0c-3.977,13.674 -12.877,25.754 -28.127,25.754c-13.036,-0 -18.767,-6.669 -19.085,-19.227l-28.605,0l-0,2.542c-0,24.788 18.288,40.694 46.574,40.694c38.622,0 61.515,-30.359 61.515,-68.023" style="fill:#fff;fill-rule:nonzero;"/><path d="M373.112,197.21l-29.721,0l-8.741,41.163l-39.428,0l8.75,-41.163l-29.721,0l-24,113.154l29.721,0l10.026,-46.725l39.24,0l-9.857,46.725l29.74,0l23.991,-113.154Z" style="fill:#fff;fill-rule:nonzero;"/><path d="M481.501,268.569l-29.561,-0c-3.33,13.515 -11.593,20.821 -23.532,20.821c-13.655,-0 -21.599,-9.839 -21.599,-27.011c0,-18.438 8.901,-43.714 30.819,-43.714c13.055,-0 18.766,6.668 19.085,19.226l28.605,0l0,-2.532c0,-24.797 -18.288,-40.685 -46.574,-40.685c-38.622,0 -61.496,30.34 -61.496,68.005c-0,31.963 18.101,50.401 49.106,50.401c29.074,0 49.417,-16.047 55.147,-44.511" style="fill:#fff;fill-rule:nonzero;"/></g></svg>